<svg xmlns="http://www.w3.org/2000/svg" xmlns:xlink="http://www.w3.org/1999/xlink" width="500" zoomAndPan="magnify" viewBox="0 0 375 374.999991" height="500" preserveAspectRatio="xMidYMid meet" version="1.0"><path fill="#5e17eb" d="M 273.738281 209.109375 C 274.957031 207.785156 275.75 205.988281 275.699219 203.820312 C 275.539062 156.042969 274.320312 108.371094 275.433594 60.539062 C 275.539062 54.71875 269.296875 51.96875 264.585938 54.296875 C 246.757812 63.027344 227.550781 69.324219 209.085938 76.625 C 191.730469 83.554688 174.480469 90.539062 157.339844 97.945312 C 154.90625 95.617188 150.089844 96.464844 150.039062 100.855469 C 149.71875 128.421875 151.203125 155.988281 153.160156 183.449219 C 154.851562 207.203125 156.175781 231.648438 159.878906 255.351562 C 141.890625 256.359375 121.679688 260.273438 109.613281 273.660156 C 96.492188 288.15625 103.214844 309.003906 120.832031 315.878906 C 139.085938 323.023438 162.84375 311.964844 174.058594 297.097656 C 179.402344 290.0625 182.367188 280.960938 178.769531 272.441406 C 178.027344 270.75 177.128906 269.160156 176.015625 267.785156 C 177.023438 266.410156 177.605469 264.769531 177.496094 263.128906 C 175.011719 236.09375 169.878906 209.164062 166.808594 182.179688 C 165.59375 171.492188 164.480469 160.75 163.476562 150.0625 C 170.621094 147.628906 177.390625 143.925781 184.269531 140.910156 C 192.894531 137.101562 201.570312 133.554688 210.355469 130.117188 C 218.554688 126.886719 226.808594 123.871094 235.167969 121.070312 C 243.160156 118.371094 251.570312 116.464844 259.347656 113.238281 C 258.714844 139.003906 258.449219 164.773438 259.191406 190.433594 C 244.214844 185.671875 227.390625 189.164062 216.546875 202.285156 C 202.3125 219.480469 205.488281 245.722656 227.972656 253.710938 C 248.183594 260.90625 273.953125 247.628906 277.496094 225.828125 C 278.5 219.109375 276.914062 213.5 273.738281 209.109375 Z M 123.636719 293.128906 C 123.636719 292.972656 123.6875 292.8125 123.6875 292.652344 C 124.164062 296.355469 125.753906 299.847656 128.449219 302.441406 C 125.117188 301.488281 123 298.738281 123.636719 293.128906 Z M 167.023438 287.996094 C 167.972656 286.09375 168.820312 284.136719 169.351562 282.175781 C 169.03125 284.242188 168.1875 286.144531 167.023438 287.996094 Z M 254.957031 98.160156 C 246.070312 99.640625 237.125 103.714844 228.714844 106.835938 C 220.25 110.011719 211.835938 113.398438 203.476562 116.996094 C 189.929688 122.8125 174.746094 128.953125 162.207031 137.46875 C 161.148438 126.464844 160.144531 115.40625 159.03125 104.402344 C 177.605469 98.6875 195.964844 92.496094 214.324219 86.253906 C 229.667969 81.015625 245.011719 74.929688 260.566406 70.222656 C 260.195312 79.746094 259.878906 89.324219 259.613281 98.847656 C 258.238281 98.160156 256.597656 97.839844 254.957031 98.160156 Z M 259.558594 230.695312 C 258.34375 232.390625 256.703125 233.925781 254.796875 235.246094 C 258.183594 231.808594 260.722656 227.734375 261.730469 223.5 C 262.046875 223.023438 262.3125 222.496094 262.578125 222.019531 C 262.683594 224.71875 261.730469 227.734375 259.558594 230.695312 Z M 259.558594 230.695312 " fill-opacity="1" fill-rule="nonzero"/></svg>